<?xml version="1.0" ?><!DOCTYPE svg  PUBLIC '-//W3C//DTD SVG 1.1//EN'  'http://www.w3.org/Graphics/SVG/1.1/DTD/svg11.dtd'><svg height="512px" style="enable-background:new 0 0 512 512;" fill="#547a3a" version="1.1" viewBox="0 0 512 512" width="512px" xml:space="preserve" xmlns="http://www.w3.org/2000/svg" xmlns:xlink="http://www.w3.org/1999/xlink"><g id="Finger_x2C__gesture_x2C__hand_x2C__one_x2C__GO"><g><path d="M123.536,395.157l0.024-1.997c23.518,9.242,44.972,33.794,65.847,33.727l97.194-0.337c3.147-0.019,6.174-0.803,8.97-2.126    c11.557-3.591,20.065-15.288,20.017-29.274c0-2.333-0.292-4.569-0.749-6.744c11.837-3.401,20.591-15.251,20.549-29.464    c-0.03-7.315-2.488-13.943-6.393-19.188c0.109-0.341,0.211-0.682,0.317-1.033l2.868-0.011    c15.147-0.053,27.374-13.721,27.313-30.534c-0.034-11.11-5.481-20.696-13.494-25.989c0.053-0.166,0.105-0.34,0.15-0.519    l90.311,0.416c20.437,0.088,37.056-13.46,37.143-30.28c0.091-16.817-16.396-30.524-36.82-30.617    c-33.242-0.153-61.377-0.282-90.39-0.41c-0.519-0.032-1.033-0.087-1.555-0.082c-3.42,0.012-6.485,0.019-9.242,0.03    c-12.776-0.059-25.858-0.117-39.75-0.18l-0.003,0.219c-9.811,0.023-27.292,0.074-59.301,0.186c0,0,14.877-57.817,14.787-85.403    c-0.212-60.157-43.341-53.808-49.468-44.385c-11.403,102.299-28.003,116.932-74.202,137.249c-0.589,0.259-1.502,0.518-2.66,0.771    c-1.294-9.754-9.511-17.353-19.633-17.457l-44.93-0.473c-11.109-0.121-20.204,8.785-20.315,19.887l-1.727,163.121    c-0.118,11.104,8.788,20.202,19.894,20.315l44.932,0.477C114.323,415.163,123.415,406.265,123.536,395.157z M65.625,384.104    c-0.036-8.891,7.142-16.127,16.037-16.173c8.894-0.034,16.131,7.146,16.165,16.037c0.036,8.894-7.14,16.131-16.031,16.169    C72.897,400.178,65.664,392.994,65.625,384.104z"/></g></g><g id="Layer_1"/></svg>
